<svg xmlns="http://www.w3.org/2000/svg" viewBox="0 0 512 512">
  <path d="M416,128c-26.5,0-48,21.5-48,48c0,8.8,2.4,17,6.4,24.2L286.5,288L344,345.5l88.4-88.4c7.2,4,15.4,6.4,24.2,6.4c26.5,0,48-21.5,48-48s-21.5-48-48-48H416z M96,128c-26.5,0-48,21.5-48,48s21.5,48,48,48c8.8,0,17-2.4,24.2-6.4L208,305.5L265.5,248L177.8,160.2C173.8,153,171.4,144.8,171.4,136C171.4,109.5,149.9,128,96,128z M96,304c-26.5,0-48,21.5-48,48s21.5,48,48,48s48-21.5,48-48c0-8.8-2.4-17-6.4-24.2l61.1-61.1L256,323.9l57.3-57.3l61.1,61.1c-4,7.2-6.4,15.4-6.4,24.2c0,26.5,21.5,48,48,48s48-21.5,48-48s-21.5-48-48-48h0L286.5,176L168,294.5l-47.8,0C113,297.6,104.8,304,96,304z"/>
</svg>
